<svg preserveAspectRatio="xMidYMid meet" width="100%" height="100%" overflow="visible" style="display: block;" viewBox="0 0 24 24" fill="none" xmlns="http://www.w3.org/2000/svg">
<path d="M6 8H15.5C16.05 8 16.5 8.45 16.5 9V10H18C19.1 10 20 10.9 20 12V12.5C20 14.15 18.65 15.5 17 15.5H16.18C15.73 17.52 13.93 19 11.8 19H10.2C7.7 19 5.7 17 5.7 14.5V8.3C5.7 8.13 5.83 8 6 8ZM16.5 12V13.5H17C17.55 13.5 18 13.05 18 12.5V12C18 11.72 17.78 11.5 17.5 11.5H16.5V12Z" fill="var(--fill-0, #EE862B)"/>
<path d="M3.5 21C3.5 20.45 3.95 20 4.5 20H19.5C20.05 20 20.5 20.45 20.5 21C20.5 21.55 20.05 22 19.5 22H4.5C3.95 22 3.5 21.55 3.5 21Z" fill="var(--fill-0, #EE862B)"/>
<path d="M8 4.25L10 6.25L12 4.25L14 6.25L16 4.25V7H8V4.25Z" fill="var(--fill-0, #EE862B)"/>
</svg>
