<svg preserveAspectRatio="xMidYMid meet" width="100%" height="100%" overflow="visible" style="display: block;" viewBox="0 0 24 24" fill="none" xmlns="http://www.w3.org/2000/svg">
<path d="M5 10.5C5 6.9 7.9 4 11.5 4H12.5C16.1 4 19 6.9 19 10.5V18C19 19.1 18.1 20 17 20H7C5.9 20 5 19.1 5 18V10.5Z" fill="var(--fill-0, #EE862B)"/>
<path d="M9 8.5C9 7.95 9.45 7.5 10 7.5C10.55 7.5 11 7.95 11 8.5V16.5C11 17.05 10.55 17.5 10 17.5C9.45 17.5 9 17.05 9 16.5V8.5Z" fill="#FFFFFF" fill-opacity="0.45"/>
<path d="M13 8.5C13 7.95 13.45 7.5 14 7.5C14.55 7.5 15 7.95 15 8.5V16.5C15 17.05 14.55 17.5 14 17.5C13.45 17.5 13 17.05 13 16.5V8.5Z" fill="#FFFFFF" fill-opacity="0.45"/>
</svg>
