<svg preserveAspectRatio="xMidYMid meet" width="100%" height="100%" overflow="visible" style="display: block;" viewBox="0 0 24 24" fill="none" xmlns="http://www.w3.org/2000/svg">
<path d="M11 3.2C11 2.9 11.12 2.62 11.34 2.41L12 1.75L12.66 2.41C12.88 2.62 13 2.9 13 3.2V5H11V3.2Z" fill="var(--fill-0, #EE862B)"/>
<path d="M5 12C5 10.9 5.9 10 7 10H17C18.1 10 19 10.9 19 12V15H5V12Z" fill="var(--fill-0, #EE862B)"/>
<path d="M4 16H20V20C20 21.1 19.1 22 18 22H6C4.9 22 4 21.1 4 20V16Z" fill="var(--fill-0, #EE862B)"/>
<path d="M6.5 8C6.5 7.17 7.17 6.5 8 6.5H16C16.83 6.5 17.5 7.17 17.5 8V10H6.5V8Z" fill="var(--fill-0, #EE862B)"/>
<path d="M11 5H13V7H11V5Z" fill="var(--fill-0, #EE862B)"/>
</svg>
