<svg preserveAspectRatio="xMidYMid meet" width="100%" height="100%" overflow="visible" style="display: block;" viewBox="0 0 24 24" fill="none" xmlns="http://www.w3.org/2000/svg">
<path d="M6 2H8C8.55 2 9 2.45 9 3V7C9 7.55 8.55 8 8 8H6C5.45 8 5 7.55 5 7V3C5 2.45 5.45 2 6 2Z" fill="var(--fill-0, #64748B)"/>
<path d="M11 2H13C13.55 2 14 2.45 14 3V7C14 7.55 13.55 8 13 8H11C10.45 8 10 7.55 10 7V3C10 2.45 10.45 2 11 2Z" fill="var(--fill-0, #64748B)"/>
<path d="M16 2H18C18.55 2 19 2.45 19 3V7C19 7.55 18.55 8 18 8H16C15.45 8 15 7.55 15 7V3C15 2.45 15.45 2 16 2Z" fill="var(--fill-0, #64748B)"/>
<path d="M6 10H18C18.55 10 19 10.45 19 11V11.5C19 13.45 17.45 15 15.5 15H8.5C6.55 15 5 13.45 5 11.5V11C5 10.45 5.45 10 6 10Z" fill="var(--fill-0, #64748B)"/>
<path d="M7 15V18C7 19.1 7.9 20 9 20H15C16.1 20 17 19.1 17 18V15H7Z" fill="var(--fill-0, #64748B)"/>
<path d="M9 17H15C15.55 17 16 17.45 16 18C16 18.55 15.55 19 15 19H9C8.45 19 8 18.55 8 18C8 17.45 8.45 17 9 17Z" fill="var(--fill-0, #64748B)"/>
</svg>
