<svg preserveAspectRatio="xMidYMid meet" width="100%" height="100%" overflow="visible" style="display: block;" viewBox="0 0 24 24" fill="none" xmlns="http://www.w3.org/2000/svg">
<path d="M12 3C16.95 3 21 7.05 21 12C21 16.95 16.95 21 12 21C7.05 21 3 16.95 3 12C3 10.4 3.42 8.9 4.16 7.6C4.52 7.02 5.33 7 5.78 7.51C6.25 8.04 6.93 8.38 7.69 8.38C9.03 8.38 10.14 7.36 10.27 6.05C10.34 5.31 10.98 4.78 11.72 4.89C12.25 4.97 12.81 4.83 13.25 4.5C13.85 4.06 14.72 4.12 15.19 4.7C16.38 6.14 18.61 6.03 19.66 4.47C20.05 3.9 20.9 3.96 21.13 4.61C21.7 6.22 20.51 8 18.78 8.15C18.5 8.17 18.29 8.41 18.29 8.69C18.29 9.69 19.1 10.5 20.1 10.5C20.59 10.5 21 10.91 21 11.4V12C21 7.05 16.95 3 12 3Z" fill="var(--fill-0, #64748B)"/>
<path d="M8 12C8.83 12 9.5 12.67 9.5 13.5C9.5 14.33 8.83 15 8 15C7.17 15 6.5 14.33 6.5 13.5C6.5 12.67 7.17 12 8 12Z" fill="#FFFFFF" fill-opacity="0.55"/>
<path d="M13.5 9C14.33 9 15 9.67 15 10.5C15 11.33 14.33 12 13.5 12C12.67 12 12 11.33 12 10.5C12 9.67 12.67 9 13.5 9Z" fill="#FFFFFF" fill-opacity="0.55"/>
<path d="M14.5 16C15.05 16 15.5 16.45 15.5 17C15.5 17.55 15.05 18 14.5 18C13.95 18 13.5 17.55 13.5 17C13.5 16.45 13.95 16 14.5 16Z" fill="#FFFFFF" fill-opacity="0.55"/>
</svg>
