<svg preserveAspectRatio="xMidYMid meet" width="100%" height="100%" overflow="visible" style="display: block;" viewBox="0 0 24 24" fill="none" xmlns="http://www.w3.org/2000/svg">
<path d="M6 9C6 6.8 7.8 5 10 5H14C16.2 5 18 6.8 18 9V10H6V9Z" fill="var(--fill-0, #EE862B)"/>
<path d="M5 11H19C19.55 11 20 11.45 20 12C20 12.55 19.55 13 19 13H5C4.45 13 4 12.55 4 12C4 11.45 4.45 11 5 11Z" fill="var(--fill-0, #EE862B)"/>
<path d="M7 14H17L16.35 19.2C16.22 20.23 15.35 21 14.31 21H9.69C8.65 21 7.78 20.23 7.65 19.2L7 14Z" fill="var(--fill-0, #EE862B)"/>
<path d="M11 3C11 2.45 11.45 2 12 2C12.55 2 13 2.45 13 3V5H11V3Z" fill="var(--fill-0, #EE862B)"/>
</svg>
