<svg preserveAspectRatio="xMidYMid meet" width="100%" height="100%" overflow="visible" style="display: block;" viewBox="0 0 24 24" fill="none" xmlns="http://www.w3.org/2000/svg">
<path d="M7 6.5H16.5C17.05 6.5 17.5 6.95 17.5 7.5V9H19C20.1 9 21 9.9 21 11V11.5C21 13.15 19.65 14.5 18 14.5H17.2C16.75 17.05 14.55 19 11.9 19H10.6C7.5 19 5 16.5 5 13.4V8.5C5 7.4 5.9 6.5 7 6.5ZM17.5 11V12.5H18C18.55 12.5 19 12.05 19 11.5V11C19 10.72 18.78 10.5 18.5 10.5H17.5V11Z" fill="var(--fill-0, #64748B)"/>
<path d="M8.5 3C8.5 2.45 8.95 2 9.5 2C10.05 2 10.5 2.45 10.5 3V4C10.5 4.55 10.05 5 9.5 5C8.95 5 8.5 4.55 8.5 4V3Z" fill="var(--fill-0, #64748B)"/>
<path d="M12.5 3C12.5 2.45 12.95 2 13.5 2C14.05 2 14.5 2.45 14.5 3V4C14.5 4.55 14.05 5 13.5 5C12.95 5 12.5 4.55 12.5 4V3Z" fill="var(--fill-0, #64748B)"/>
<path d="M5 21C5 20.45 5.45 20 6 20H18C18.55 20 19 20.45 19 21C19 21.55 18.55 22 18 22H6C5.45 22 5 21.55 5 21Z" fill="var(--fill-0, #64748B)"/>
</svg>
