<svg preserveAspectRatio="xMidYMid meet" width="100%" height="100%" overflow="visible" style="display: block;" viewBox="0 0 24 24" fill="none" xmlns="http://www.w3.org/2000/svg">
<path d="M9 3H18.5C19.05 3 19.5 3.45 19.5 4C19.5 4.55 19.05 5 18.5 5H15.95L14.4 9H17.3C17.85 9 18.3 9.45 18.25 10L17.2 21C17.15 21.55 16.7 22 16.15 22H7.85C7.3 22 6.85 21.55 6.8 21L5.75 10C5.7 9.45 6.15 9 6.7 9H12.25L13.8 5H9C8.45 5 8 4.55 8 4C8 3.45 8.45 3 9 3ZM8.35 11L9.2 20H14.8L15.65 11H8.35Z" fill="var(--fill-0, #64748B)"/>
<path d="M10.5 13.5C10.5 12.95 10.95 12.5 11.5 12.5H12.5C13.05 12.5 13.5 12.95 13.5 13.5C13.5 14.05 13.05 14.5 12.5 14.5H11.5C10.95 14.5 10.5 14.05 10.5 13.5Z" fill="var(--fill-0, #64748B)"/>
<path d="M3 7.5C3 5.55 4.55 4 6.5 4H7V4.5C7 6.45 5.45 8 3.5 8H3V7.5Z" fill="var(--fill-0, #64748B)"/>
</svg>
