<svg preserveAspectRatio="xMidYMid meet" width="100%" height="100%" overflow="visible" style="display: block;" viewBox="0 0 24 24" fill="none" xmlns="http://www.w3.org/2000/svg">
<path d="M7 4H17C17.55 4 18 4.45 18 5V7H6V5C6 4.45 6.45 4 7 4Z" fill="var(--fill-0, #64748B)"/>
<path d="M6.7 8.5H17.3L16.2 20C16.1 20.55 15.65 21 15.1 21H8.9C8.35 21 7.9 20.55 7.8 20L6.7 8.5ZM8.9 10.5L9.7 19H14.3L15.1 10.5H8.9Z" fill="var(--fill-0, #64748B)"/>
<path d="M4.3 19.7L19.7 4.3C20.1 3.9 20.75 3.9 21.15 4.3C21.55 4.7 21.55 5.35 21.15 5.75L5.75 21.15C5.35 21.55 4.7 21.55 4.3 21.15C3.9 20.75 3.9 20.1 4.3 19.7Z" fill="var(--fill-0, #64748B)"/>
</svg>
