<svg preserveAspectRatio="xMidYMid meet" width="100%" height="100%" overflow="visible" style="display: block;" viewBox="0 0 24 24" fill="none" xmlns="http://www.w3.org/2000/svg">
<path d="M5 9C5 6.24 7.24 4 10 4H14C16.76 4 19 6.24 19 9V12H5V9Z" fill="var(--fill-0, #EE862B)"/>
<path d="M4 13H20V17C20 18.66 18.66 20 17 20H7C5.34 20 4 18.66 4 17V13Z" fill="var(--fill-0, #EE862B)"/>
<path d="M8 7.5C8 6.95 8.45 6.5 9 6.5H15C15.55 6.5 16 6.95 16 7.5C16 8.05 15.55 8.5 15 8.5H9C8.45 8.5 8 8.05 8 7.5Z" fill="#FFFFFF" fill-opacity="0.45"/>
<path d="M7 15.5H17C17.55 15.5 18 15.95 18 16.5C18 17.05 17.55 17.5 17 17.5H7C6.45 17.5 6 17.05 6 16.5C6 15.95 6.45 15.5 7 15.5Z" fill="#FFFFFF" fill-opacity="0.45"/>
</svg>
