<svg preserveAspectRatio="xMidYMid meet" width="100%" height="100%" overflow="visible" style="display: block;" viewBox="0 0 24 24" fill="none" xmlns="http://www.w3.org/2000/svg">
<path d="M7 3.5C7 2.95 7.45 2.5 8 2.5C8.55 2.5 9 2.95 9 3.5C9 4.15 8.65 4.5 8.35 4.8C8.1 5.05 8 5.2 8 5.5C8 6.05 7.55 6.5 7 6.5C6.45 6.5 6 6.05 6 5.5C6 4.85 6.35 4.5 6.65 4.2C6.9 3.95 7 3.8 7 3.5Z" fill="var(--fill-0, #64748B)"/>
<path d="M12 3.5C12 2.95 12.45 2.5 13 2.5C13.55 2.5 14 2.95 14 3.5C14 4.15 13.65 4.5 13.35 4.8C13.1 5.05 13 5.2 13 5.5C13 6.05 12.55 6.5 12 6.5C11.45 6.5 11 6.05 11 5.5C11 4.85 11.35 4.5 11.65 4.2C11.9 3.95 12 3.8 12 3.5Z" fill="var(--fill-0, #64748B)"/>
<path d="M4 8H16.5C18.45 8 20 9.55 20 11.5C20 13.45 18.45 15 16.5 15H16.15C15.35 17.35 13.15 19 10.5 19H9.5C6.45 19 4 16.55 4 13.5V8ZM16.5 13C17.35 13 18 12.35 18 11.5C18 10.65 17.35 10 16.5 10H16V13H16.5ZM6 10V13.5C6 15.45 7.55 17 9.5 17H10.5C12.45 17 14 15.45 14 13.5V10H6Z" fill="var(--fill-0, #64748B)"/>
<path d="M3 20H18C18.55 20 19 20.45 19 21C19 21.55 18.55 22 18 22H3C2.45 22 2 21.55 2 21C2 20.45 2.45 20 3 20Z" fill="var(--fill-0, #64748B)"/>
</svg>
