<svg width="24" height="24" viewBox="0 0 24 24" fill="none" xmlns="http://www.w3.org/2000/svg">
  <circle cx="12" cy="12" r="3" stroke="#EE862B" stroke-width="2"/>
  <path d="M19.4 15C19.2669 15.3016 19.2272 15.6362 19.286 15.9606C19.3448 16.285 19.4995 16.5843 19.73 16.82L19.79 16.88C19.976 17.0657 20.1235 17.2863 20.2241 17.5291C20.3248 17.7719 20.3766 18.0322 20.3766 18.295C20.3766 18.5578 20.3248 18.8181 20.2241 19.0609C20.1235 19.3037 19.976 19.5243 19.79 19.71C19.6043 19.896 19.3837 20.0435 19.1409 20.1441C18.8981 20.2448 18.6378 20.2966 18.375 20.2966C18.1122 20.2966 17.8519 20.2448 17.6091 20.1441C17.3663 20.0435 17.1457 19.896 16.96 19.71L16.9 19.65C16.6643 19.4195 16.365 19.2648 16.0406 19.206C15.7162 19.1472 15.3816 19.1869 15.08 19.32C14.7842 19.4467 14.532 19.6572 14.3553 19.9255C14.1786 20.1937 14.0856 20.5082 14.09 20.83V21C14.09 21.5304 13.8793 22.0391 13.5042 22.4142C13.1291 22.7893 12.6204 23 12.09 23C11.5596 23 11.0509 22.7893 10.6758 22.4142C10.3007 22.0391 10.09 21.5304 10.09 21V20.91C10.0953 20.5691 10.0058 20.2329 9.83128 19.9378C9.65675 19.6427 9.4039 19.4009 9.10003 19.24C8.79842 19.1069 8.46381 19.0672 8.13941 19.126C7.81501 19.1848 7.51575 19.3395 7.28003 19.57L7.22003 19.63C7.03429 19.816 6.81368 19.9635 6.57088 20.0641C6.32808 20.1648 6.06779 20.2166 5.80503 20.2166C5.54227 20.2166 5.28198 20.1648 5.03918 20.0641C4.79638 19.9635 4.57577 19.816 4.39003 19.63C4.20405 19.4443 4.05653 19.2237 3.95588 18.9809C3.85524 18.7381 3.80344 18.4778 3.80344 18.215C3.80344 17.9522 3.85524 17.6919 3.95588 17.4491C4.05653 17.2063 4.20405 16.9857 4.39003 16.8L4.45003 16.74C4.68054 16.5043 4.83521 16.205 4.89401 15.8806C4.95282 15.5562 4.91312 15.2216 4.78003 14.92C4.65337 14.6242 4.44285 14.372 4.17463 14.1953C3.90641 14.0186 3.59185 13.9256 3.27003 13.93H3.09003C2.5596 13.93 2.05089 13.7193 1.67581 13.3442C1.30074 12.9691 1.09003 12.4604 1.09003 11.93C1.09003 11.3996 1.30074 10.8909 1.67581 10.5158C2.05089 10.1407 2.5596 9.93001 3.09003 9.93001H3.18003C3.52095 9.93529 3.85713 9.84581 4.15222 9.67128C4.44731 9.49675 4.68913 9.2439 4.85003 8.94003C4.98312 8.63842 5.02282 8.30381 4.96401 7.97941C4.90521 7.65501 4.75054 7.35575 4.52003 7.12003L4.46003 7.06003C4.27405 6.87429 4.12653 6.65368 4.02588 6.41088C3.92524 6.16808 3.87344 5.90779 3.87344 5.64503C3.87344 5.38227 3.92524 5.12198 4.02588 4.87918C4.12653 4.63638 4.27405 4.41577 4.46003 4.23003C4.64577 4.04405 4.86638 3.89653 5.10918 3.79588C5.35198 3.69524 5.61227 3.64344 5.87503 3.64344C6.13779 3.64344 6.39808 3.69524 6.64088 3.79588C6.88368 3.89653 7.10429 4.04405 7.29003 4.23003L7.35003 4.29003C7.58575 4.52054 7.88501 4.67521 8.20941 4.73401C8.53381 4.79282 8.86842 4.75312 9.17003 4.62003H9.09003C9.38586 4.49337 9.63805 4.28285 9.81475 4.01463C9.99145 3.74641 10.0845 3.43185 10.08 3.11003V3.00003C10.08 2.4696 10.2907 1.96089 10.6658 1.58581C11.0409 1.21074 11.5496 1.00003 12.08 1.00003C12.6104 1.00003 13.1191 1.21074 13.4942 1.58581C13.8693 1.96089 14.08 2.4696 14.08 3.00003V3.09003C14.0747 3.43095 14.1642 3.76713 14.3387 4.06222C14.5133 4.35731 14.7661 4.59913 15.07 4.76003C15.3716 4.89312 15.7062 4.93282 16.0306 4.87401C16.355 4.81521 16.6543 4.66054 16.89 4.43003L16.95 4.37003C17.1357 4.18405 17.3563 4.03653 17.5991 3.93588C17.8419 3.83524 18.1022 3.78344 18.365 3.78344C18.6278 3.78344 18.8881 3.83524 19.1309 3.93588C19.3737 4.03653 19.5943 4.18405 19.78 4.37003C19.966 4.55577 20.1135 4.77638 20.2141 5.01918C20.3148 5.26198 20.3666 5.52227 20.3666 5.78503C20.3666 6.04779 20.3148 6.30808 20.2141 6.55088C20.1135 6.79368 19.966 7.01429 19.78 7.20003L19.72 7.26003C19.4895 7.49575 19.3348 7.79501 19.276 8.11941C19.2172 8.44381 19.2569 8.77842 19.39 9.08003V9.00003C19.2634 9.29586 19.0529 9.54805 18.7846 9.72475C18.5164 9.90145 18.2019 9.99454 17.88 9.99003H18C18.5304 9.99003 19.0391 10.2007 19.4142 10.5758C19.7893 10.9509 20 11.4596 20 11.99C20 12.5204 19.7893 13.0291 19.4142 13.4042C19.0391 13.7793 18.5304 13.99 18 13.99H17.91C17.5691 13.9847 17.2329 14.0742 16.9378 14.2487C16.6427 14.4233 16.4009 14.6761 16.24 14.98Z" stroke="#EE862B" stroke-width="2" stroke-linecap="round" stroke-linejoin="round"/>
</svg>