<svg width="24" height="24" viewBox="0 0 24 24" fill="none" xmlns="http://www.w3.org/2000/svg">
  <path d="M12 14C13.1046 14 14 13.1046 14 12C14 10.8954 13.1046 10 12 10C10.8954 10 10 10.8954 10 12C10 13.1046 10.8954 14 12 14Z" fill="white"/>
  <path d="M18 8C18 5.79086 15.3137 4 12 4C8.68629 4 6 5.79086 6 8V14C6 16.2091 8.68629 18 12 18C15.3137 18 18 16.2091 18 14V8Z" stroke="white" stroke-width="2"/>
  <path d="M12 18V21M12 21H8M12 21H16" stroke="white" stroke-width="2" stroke-linecap="round"/>
</svg>